<svg width="476" height="106" viewBox="0 0 476 106" fill="none" xmlns="http://www.w3.org/2000/svg">
<path d="M450.277 85.002V38.4199H461.22V46.4619H461.439C462.89 40.8369 466.757 37.4531 472.118 37.4531C473.48 37.4531 474.755 37.6729 475.59 37.8926V47.7803C474.667 47.4287 472.997 47.165 471.151 47.165C464.955 47.165 461.22 51.0762 461.22 57.9756V85.002H450.277Z" fill="currentColor"/>
<path d="M416.22 85.793C406.903 85.793 400.619 80.0361 400.619 71.7305V71.6426C400.619 63.3809 407.035 58.415 418.329 57.7119L430.502 56.9648V53.7568C430.502 49.0547 427.426 46.1982 421.889 46.1982C416.703 46.1982 413.539 48.6152 412.836 52.043L412.748 52.4385H402.597L402.641 51.9111C403.3 43.6494 410.463 37.4531 422.284 37.4531C433.93 37.4531 441.444 43.6055 441.444 52.9658V85.002H430.502V77.8389H430.238C427.558 82.7168 422.372 85.793 416.22 85.793ZM411.518 71.291C411.518 75.1143 414.682 77.4434 419.472 77.4434C425.756 77.4434 430.502 73.2686 430.502 67.7314V64.2158L419.867 64.875C414.462 65.2266 411.518 67.5557 411.518 71.2471V71.291Z" fill="currentColor"/>
<path d="M374.34 85.9248C360.365 85.9248 351.928 76.6523 351.928 61.8428V61.7988C351.928 47.1211 360.497 37.4531 373.812 37.4531C387.128 37.4531 395.39 46.8135 395.39 60.876V64.3916H362.782C362.958 72.5654 367.44 77.3994 374.56 77.3994C380.009 77.3994 383.568 74.499 384.623 71.3789L384.711 71.0713H394.95L394.818 71.5547C393.368 78.7178 386.513 85.9248 374.34 85.9248ZM373.944 46.0225C368.144 46.0225 363.793 49.9336 362.914 57.0967H384.755C383.964 49.7139 379.745 46.0225 373.944 46.0225Z" fill="currentColor"/>
<path d="M333.603 84.999V21.5859H344.545V84.999H333.603Z" fill="currentColor"/>
<path d="M298.71 86.0986C280.473 86.0986 268.959 73.5303 268.959 53.2715V53.2275C268.959 32.9688 280.517 20.4883 298.71 20.4883C313.3 20.4883 324.022 29.585 325.692 42.5049L325.736 42.9443H314.618L314.398 42.1094C312.553 34.8584 306.972 30.332 298.71 30.332C287.636 30.332 280.561 39.165 280.561 53.2275V53.2715C280.561 67.3779 287.68 76.2549 298.71 76.2549C306.796 76.2549 312.465 71.9043 314.53 64.082L314.662 63.6426H325.78L325.692 64.082C324.066 77.0898 313.3 86.0986 298.71 86.0986Z" fill="currentColor"/>
<path d="M257.094 85.9238C247.338 85.9238 242.724 81.9688 242.724 72.3887V46.8564H236.132V38.4189H242.724V26.5977H253.842V38.4189H262.499V46.8564H253.842V71.4658C253.842 76.0361 255.863 77.4863 259.862 77.4863C260.917 77.4863 261.752 77.3545 262.499 77.3105V85.5283C261.225 85.7041 259.291 85.9238 257.094 85.9238Z" fill="currentColor"/>
<path d="M211.654 85.9248C197.68 85.9248 189.242 76.6523 189.242 61.8428V61.7988C189.242 47.1211 197.812 37.4531 211.127 37.4531C224.442 37.4531 232.704 46.8135 232.704 60.876V64.3916H200.097C200.272 72.5654 204.755 77.3994 211.874 77.3994C217.323 77.3994 220.883 74.499 221.938 71.3789L222.025 71.0713H232.265L232.133 71.5547C230.683 78.7178 223.827 85.9248 211.654 85.9248ZM211.259 46.0225C205.458 46.0225 201.107 49.9336 200.229 57.0967H222.069C221.278 49.7139 217.06 46.0225 211.259 46.0225Z" fill="currentColor"/>
<path d="M135.849 84.999V21.5859H162.172C173.729 21.5859 181.156 27.8262 181.156 37.4502V37.5381C181.156 44.3496 176.015 50.458 169.203 51.3809V51.6006C178.124 52.3916 184.188 58.6318 184.188 66.9814V67.0693C184.188 78.1436 175.971 84.999 162.436 84.999H135.849ZM159.315 30.4189H147.187V48.3926H157.382C165.556 48.3926 169.95 45.0527 169.95 39.0762V38.9883C169.95 33.4951 166.039 30.4189 159.315 30.4189ZM159.184 56.6104H147.187V76.166H159.843C168.148 76.166 172.631 72.7822 172.631 66.4102V66.3223C172.631 59.9502 168.061 56.6104 159.184 56.6104Z" fill="currentColor"/>
<path d="M76 -1.31134e-06L53 -2.3167e-06C23.7289 -1.31134e-06 -1.03722e-06 23.7289 -2.3167e-06 53C-3.59618e-06 82.2711 23.7289 106 53 106L76 106C92.5685 106 106 92.5685 106 76C106 66.7634 101.825 58.5032 95.2598 53C101.825 47.4968 106 39.2366 106 30C106 13.4315 92.5685 -5.87108e-07 76 -1.31134e-06Z" fill="#206C5C"/>
<path d="M16 53C16 73.4345 32.5655 90 53 90L76 90C83.732 90 90 83.732 90 76C90 68.268 83.732 62 76 62L53 62C48.0294 62 44 57.9706 44 53C44 48.0294 48.0294 44 53 44L76 44C83.732 44 90 37.732 90 30C90 22.268 83.732 16 76 16L53 16C32.5655 16 16 32.5655 16 53Z" fill="#4EEC9D"/>
</svg>
